{"title":"Mad Max: Fury Road (2015) Cam.x264.mvsnap.mp4","uid":11952405,"size":446744845,"categoryP":"video","categoryS":"movies","magnet":"?xt=urn:btih:d41b7c0aa2dbc129699c2bdb7d4486fd12458b90&amp;dn=Mad+Max%3A+Fury+Road+%282015%29+Cam.x264.mvsnap.mp4&amp;tr=udp%3A%2F%2Ftracker.openbittorrent.com%3A80&amp;tr=udp%3A%2F%2Fopen.demonii.com%3A1337&amp;tr=udp%3A%2F%2Ftracker.coppersurfer.tk%3A6969&amp;tr=udp%3A%2F%2Fexodus.desync.com%3A6969","seeders":0,"leechers":1,"uploader":"xuka","files":1,"time":1432213608,"description":"Mad Max: Fury Road (2015) Cam.x264.mvsnap.mp4\n\n[img]http://extraimago.com/images/2015/05/20/XCV3_R8b3cf.jpg[/img]\n\n[url=http://www.imdb.com/title/tt1392190/]http://www.imdb.com/title/tt1392190/[/url]\n\nStoryline:\nAn apocalyptic story set in the furthest reaches of our planet, in a stark desert landscape where humanity is broken, and almost everyone is crazed fighting for the necessities of life. Within this world exist two rebels on the run who just might be able to restore order. There's Max, a man of action and a man of few words, who seeks peace of mind following the loss of his wife and child in the aftermath of the chaos. And Furiosa, a woman of action and a woman who believes her path to survival may be achieved if she can make it across the desert back to her childhood homeland\n\nGenres: Action | Adventure | Sci-Fi | Thriller\nCountry: Australia | USA\nLanguage: English\n\n[code]\nInput #0, mov,mp4,m4a,3gp,3g2,mj2, from 'mad.max.fury.road.2015.hqcam.xvid.ac3.mvsnap.mp4':\n  Metadata:\n    major_brand     : isom\n    minor_version   : 512\n    compatible_brands: isomiso2avc1mp41\n    encoder         : mvsnap\n  Duration: 01:52:52.15, start: 0.023220, bitrate: 527 kb/s\n    Stream #0:0(und): Video: h264 (Constrained Baseline) (avc1 / 0x31637661), yuv420p, 640x360 [SAR 1:1 DAR 16:9], 394 kb/s, 24 fps, 24 tbr, 12288 tbn, 48 tbc (default)\n    Metadata:\n      handler_name    : VideoHandler\n    Stream #0:1(und): Audio: aac (LC) (mp4a / 0x6134706D), 44100 Hz, stereo, fltp, 128 kb/s (default)\n\tSource: MvSnap\n[/code]","torrent":{"xt":"urn:btih:d41b7c0aa2dbc129699c2bdb7d4486fd12458b90","amp;dn":"Mad+Max%3A+Fury+Road+%282015%29+Cam.x264.mvsnap.mp4","amp;tr":["udp%3A%2F%2Ftracker.openbittorrent.com%3A80","udp%3A%2F%2Fopen.demonii.com%3A1337","udp%3A%2F%2Ftracker.coppersurfer.tk%3A6969","udp%3A%2F%2Fexodus.desync.com%3A6969"],"infoHash":"d41b7c0aa2dbc129699c2bdb7d4486fd12458b90","infoHashBuffer":{"type":"Buffer","data":[212,27,124,10,162,219,193,41,105,156,43,219,125,68,134,253,18,69,139,144]},"announce":[],"urlList":[]}}